<mxfile host="app.diagrams.net" modified="2023-12-14T14:24:27.247Z" agent="Mozilla/5.0 (Windows NT 10.0; Win64; x64) AppleWebKit/537.36 (KHTML, like Gecko) Chrome/120.0.0.0 Safari/537.36 Edg/120.0.0.0" etag="RvgEJi3T3Z6OZxMx61yh" version="22.1.8" type="github">
  <diagram name="第 1 页" id="00_iCc0Oaq-E4TO8DOJu">
    <mxGraphModel dx="1426" dy="759" grid="1" gridSize="10" guides="1" tooltips="1" connect="1" arrows="1" fold="1" page="1" pageScale="1" pageWidth="827" pageHeight="1169" math="0" shadow="0">
      <root>
        <mxCell id="0" />
        <mxCell id="1" parent="0" />
        <mxCell id="tMtSn4o1anEzBdm0Vx1J-5" style="edgeStyle=orthogonalEdgeStyle;rounded=0;orthogonalLoop=1;jettySize=auto;html=1;exitX=1;exitY=0.5;exitDx=0;exitDy=0;entryX=0;entryY=0.5;entryDx=0;entryDy=0;" edge="1" parent="1" source="tMtSn4o1anEzBdm0Vx1J-1" target="tMtSn4o1anEzBdm0Vx1J-2">
          <mxGeometry relative="1" as="geometry" />
        </mxCell>
        <mxCell id="tMtSn4o1anEzBdm0Vx1J-1" value="synchronized" style="rounded=0;whiteSpace=wrap;html=1;fillColor=#dae8fc;strokeColor=#6c8ebf;" vertex="1" parent="1">
          <mxGeometry x="90" y="240" width="100" height="60" as="geometry" />
        </mxCell>
        <mxCell id="tMtSn4o1anEzBdm0Vx1J-6" style="edgeStyle=orthogonalEdgeStyle;rounded=0;orthogonalLoop=1;jettySize=auto;html=1;entryX=0;entryY=0.5;entryDx=0;entryDy=0;" edge="1" parent="1" source="tMtSn4o1anEzBdm0Vx1J-2" target="tMtSn4o1anEzBdm0Vx1J-3">
          <mxGeometry relative="1" as="geometry" />
        </mxCell>
        <mxCell id="tMtSn4o1anEzBdm0Vx1J-2" value="&lt;div data-docx-has-block-data=&quot;false&quot; data-page-id=&quot;KfVhd5A1moOs4Ixvm2kce4qanXf&quot;&gt;&lt;div class=&quot;old-record-id-QniAdod5wo1gPHxd3bUc6zW0njf&quot;&gt;&lt;code&gt;&lt;font face=&quot;Helvetica&quot;&gt;ObjectMonitor&lt;/font&gt;&lt;/code&gt;&lt;/div&gt;&lt;/div&gt;" style="rounded=0;whiteSpace=wrap;html=1;fillColor=#dae8fc;strokeColor=#6c8ebf;" vertex="1" parent="1">
          <mxGeometry x="310" y="240" width="100" height="60" as="geometry" />
        </mxCell>
        <mxCell id="tMtSn4o1anEzBdm0Vx1J-3" value="&lt;div data-docx-has-block-data=&quot;false&quot; data-page-id=&quot;KfVhd5A1moOs4Ixvm2kce4qanXf&quot;&gt;&lt;div class=&quot;old-record-id-WZQ5dv32woqlaGxMPEucXm3KnHc&quot;&gt;Mutex Lock&lt;/div&gt;&lt;/div&gt;" style="rounded=0;whiteSpace=wrap;html=1;fillColor=#dae8fc;strokeColor=#6c8ebf;" vertex="1" parent="1">
          <mxGeometry x="530" y="240" width="100" height="60" as="geometry" />
        </mxCell>
      </root>
    </mxGraphModel>
  </diagram>
</mxfile>
